<mxfile host="Electron" modified="2023-11-16T21:14:59.845Z" agent="Mozilla/5.0 (Macintosh; Intel Mac OS X 10_15_7) AppleWebKit/537.36 (KHTML, like Gecko) draw.io/21.7.5 Chrome/114.0.5735.289 Electron/25.8.1 Safari/537.36" etag="F4ZLBw4BmCn_dX5dCVzt" version="21.7.5" type="device">
  <diagram name="Strona-1" id="nAoZdu431SRF_9XWTwDD">
    <mxGraphModel dx="1583" dy="703" grid="1" gridSize="10" guides="1" tooltips="1" connect="1" arrows="1" fold="1" page="1" pageScale="1" pageWidth="827" pageHeight="1169" math="0" shadow="0">
      <root>
        <mxCell id="0" />
        <mxCell id="1" parent="0" />
        <mxCell id="8G-m37M0JP41XNvaH4UB-1" value="&lt;b&gt;Frontend App (FE)&lt;/b&gt;" style="html=1;dropTarget=0;whiteSpace=wrap;" vertex="1" parent="1">
          <mxGeometry x="290" y="195" width="180" height="90" as="geometry" />
        </mxCell>
        <mxCell id="8G-m37M0JP41XNvaH4UB-2" value="" style="shape=module;jettyWidth=8;jettyHeight=4;" vertex="1" parent="8G-m37M0JP41XNvaH4UB-1">
          <mxGeometry x="1" width="20" height="20" relative="1" as="geometry">
            <mxPoint x="-27" y="7" as="offset" />
          </mxGeometry>
        </mxCell>
        <mxCell id="8G-m37M0JP41XNvaH4UB-24" style="edgeStyle=orthogonalEdgeStyle;rounded=0;orthogonalLoop=1;jettySize=auto;html=1;entryX=0.5;entryY=0;entryDx=0;entryDy=0;entryPerimeter=0;" edge="1" parent="1" source="8G-m37M0JP41XNvaH4UB-3" target="8G-m37M0JP41XNvaH4UB-23">
          <mxGeometry relative="1" as="geometry" />
        </mxCell>
        <mxCell id="8G-m37M0JP41XNvaH4UB-3" value="&lt;b&gt;Backend App (BE)&lt;/b&gt;" style="html=1;dropTarget=0;whiteSpace=wrap;" vertex="1" parent="1">
          <mxGeometry x="290" y="420" width="180" height="90" as="geometry" />
        </mxCell>
        <mxCell id="8G-m37M0JP41XNvaH4UB-4" value="" style="shape=module;jettyWidth=8;jettyHeight=4;" vertex="1" parent="8G-m37M0JP41XNvaH4UB-3">
          <mxGeometry x="1" width="20" height="20" relative="1" as="geometry">
            <mxPoint x="-27" y="7" as="offset" />
          </mxGeometry>
        </mxCell>
        <mxCell id="8G-m37M0JP41XNvaH4UB-8" value="" style="group;rotation=-90;" vertex="1" connectable="0" parent="1">
          <mxGeometry x="310" y="390" width="60" height="30" as="geometry" />
        </mxCell>
        <mxCell id="8G-m37M0JP41XNvaH4UB-5" value="" style="html=1;rounded=0;rotation=-180;" vertex="1" parent="8G-m37M0JP41XNvaH4UB-8">
          <mxGeometry x="15" y="15" width="30" height="30" as="geometry" />
        </mxCell>
        <mxCell id="8G-m37M0JP41XNvaH4UB-6" value="" style="endArrow=none;html=1;rounded=0;align=center;verticalAlign=top;endFill=0;labelBackgroundColor=none;endSize=2;" edge="1" source="8G-m37M0JP41XNvaH4UB-5" target="8G-m37M0JP41XNvaH4UB-7" parent="8G-m37M0JP41XNvaH4UB-8">
          <mxGeometry relative="1" as="geometry" />
        </mxCell>
        <mxCell id="8G-m37M0JP41XNvaH4UB-7" value="" style="ellipse;html=1;fontSize=11;align=center;fillColor=none;points=[];aspect=fixed;resizable=0;verticalAlign=bottom;labelPosition=center;verticalLabelPosition=top;flipH=1;rotation=-90;" vertex="1" parent="8G-m37M0JP41XNvaH4UB-8">
          <mxGeometry x="26" y="-15" width="8" height="8" as="geometry" />
        </mxCell>
        <mxCell id="8G-m37M0JP41XNvaH4UB-13" value="" style="group;rotation=90;" vertex="1" connectable="0" parent="1">
          <mxGeometry x="310" y="285" width="60" height="30" as="geometry" />
        </mxCell>
        <mxCell id="8G-m37M0JP41XNvaH4UB-10" value="" style="html=1;rounded=0;rotation=90;" vertex="1" parent="8G-m37M0JP41XNvaH4UB-13">
          <mxGeometry x="15" y="-15" width="30" height="30" as="geometry" />
        </mxCell>
        <mxCell id="8G-m37M0JP41XNvaH4UB-11" value="" style="endArrow=none;html=1;rounded=0;align=center;verticalAlign=top;endFill=0;labelBackgroundColor=none;endSize=2;" edge="1" source="8G-m37M0JP41XNvaH4UB-10" target="8G-m37M0JP41XNvaH4UB-12" parent="8G-m37M0JP41XNvaH4UB-13">
          <mxGeometry relative="1" as="geometry" />
        </mxCell>
        <mxCell id="8G-m37M0JP41XNvaH4UB-12" value="" style="shape=requiredInterface;html=1;fontSize=11;align=center;fillColor=none;points=[];aspect=fixed;resizable=0;verticalAlign=bottom;labelPosition=center;verticalLabelPosition=top;flipH=1;rotation=90;" vertex="1" parent="8G-m37M0JP41XNvaH4UB-13">
          <mxGeometry x="28" y="38" width="5" height="10" as="geometry" />
        </mxCell>
        <mxCell id="8G-m37M0JP41XNvaH4UB-15" style="edgeStyle=orthogonalEdgeStyle;rounded=0;orthogonalLoop=1;jettySize=auto;html=1;entryX=-0.225;entryY=0.325;entryDx=0;entryDy=0;entryPerimeter=0;" edge="1" parent="1" source="8G-m37M0JP41XNvaH4UB-12" target="8G-m37M0JP41XNvaH4UB-7">
          <mxGeometry relative="1" as="geometry" />
        </mxCell>
        <mxCell id="8G-m37M0JP41XNvaH4UB-16" value="" style="endArrow=none;html=1;rounded=0;" edge="1" parent="1">
          <mxGeometry width="50" height="50" relative="1" as="geometry">
            <mxPoint x="170" y="350" as="sourcePoint" />
            <mxPoint x="600" y="350" as="targetPoint" />
          </mxGeometry>
        </mxCell>
        <mxCell id="8G-m37M0JP41XNvaH4UB-17" value="User Browser" style="text;html=1;align=center;verticalAlign=middle;resizable=0;points=[];autosize=1;strokeColor=none;fillColor=none;" vertex="1" parent="1">
          <mxGeometry x="130" y="280" width="100" height="30" as="geometry" />
        </mxCell>
        <mxCell id="8G-m37M0JP41XNvaH4UB-18" value="Server" style="text;html=1;align=center;verticalAlign=middle;resizable=0;points=[];autosize=1;strokeColor=none;fillColor=none;" vertex="1" parent="1">
          <mxGeometry x="150" y="390" width="60" height="30" as="geometry" />
        </mxCell>
        <mxCell id="8G-m37M0JP41XNvaH4UB-20" style="edgeStyle=orthogonalEdgeStyle;rounded=0;orthogonalLoop=1;jettySize=auto;html=1;" edge="1" parent="1" source="8G-m37M0JP41XNvaH4UB-19" target="8G-m37M0JP41XNvaH4UB-1">
          <mxGeometry relative="1" as="geometry" />
        </mxCell>
        <mxCell id="8G-m37M0JP41XNvaH4UB-19" value="Actor" style="shape=umlActor;verticalLabelPosition=bottom;verticalAlign=top;html=1;outlineConnect=0;" vertex="1" parent="1">
          <mxGeometry x="365" width="30" height="60" as="geometry" />
        </mxCell>
        <mxCell id="8G-m37M0JP41XNvaH4UB-21" value="React&lt;br&gt;Angular&lt;br&gt;Vue.js" style="text;html=1;strokeColor=none;fillColor=none;align=center;verticalAlign=middle;whiteSpace=wrap;rounded=0;" vertex="1" parent="1">
          <mxGeometry x="530" y="200" width="60" height="30" as="geometry" />
        </mxCell>
        <mxCell id="8G-m37M0JP41XNvaH4UB-22" value="Java: SpringBoot&lt;br&gt;C#: .Net Core&lt;br&gt;&lt;b&gt;Python: FastAPI&lt;/b&gt;" style="text;html=1;strokeColor=none;fillColor=none;align=center;verticalAlign=middle;whiteSpace=wrap;rounded=0;" vertex="1" parent="1">
          <mxGeometry x="560" y="410" width="150" height="50" as="geometry" />
        </mxCell>
        <mxCell id="8G-m37M0JP41XNvaH4UB-23" value="DB" style="shape=cylinder3;whiteSpace=wrap;html=1;boundedLbl=1;backgroundOutline=1;size=15;" vertex="1" parent="1">
          <mxGeometry x="350" y="600" width="60" height="80" as="geometry" />
        </mxCell>
        <mxCell id="8G-m37M0JP41XNvaH4UB-25" value="" style="endArrow=none;html=1;rounded=0;entryX=0;entryY=0.5;entryDx=0;entryDy=0;" edge="1" parent="1" target="8G-m37M0JP41XNvaH4UB-3">
          <mxGeometry width="50" height="50" relative="1" as="geometry">
            <mxPoint x="-20" y="540" as="sourcePoint" />
            <mxPoint x="130" y="520" as="targetPoint" />
          </mxGeometry>
        </mxCell>
        <mxCell id="8G-m37M0JP41XNvaH4UB-26" value="Controller" style="rounded=0;whiteSpace=wrap;html=1;" vertex="1" parent="1">
          <mxGeometry x="-210" y="460" width="180" height="60" as="geometry" />
        </mxCell>
        <mxCell id="8G-m37M0JP41XNvaH4UB-27" value="React&lt;br&gt;Angular&lt;br&gt;Vue.js" style="text;html=1;strokeColor=none;fillColor=none;align=center;verticalAlign=middle;whiteSpace=wrap;rounded=0;" vertex="1" parent="1">
          <mxGeometry x="550" y="220" width="60" height="30" as="geometry" />
        </mxCell>
        <mxCell id="8G-m37M0JP41XNvaH4UB-28" value="Serivce" style="rounded=0;whiteSpace=wrap;html=1;" vertex="1" parent="1">
          <mxGeometry x="-210" y="540" width="180" height="60" as="geometry" />
        </mxCell>
        <mxCell id="8G-m37M0JP41XNvaH4UB-29" value="Repository" style="rounded=0;whiteSpace=wrap;html=1;" vertex="1" parent="1">
          <mxGeometry x="-210" y="620" width="180" height="60" as="geometry" />
        </mxCell>
        <mxCell id="8G-m37M0JP41XNvaH4UB-30" value="REST API" style="text;html=1;align=center;verticalAlign=middle;resizable=0;points=[];autosize=1;strokeColor=none;fillColor=none;" vertex="1" parent="1">
          <mxGeometry x="-300" y="475" width="80" height="30" as="geometry" />
        </mxCell>
        <mxCell id="8G-m37M0JP41XNvaH4UB-31" value="Logika aplikacji" style="text;html=1;align=center;verticalAlign=middle;resizable=0;points=[];autosize=1;strokeColor=none;fillColor=none;" vertex="1" parent="1">
          <mxGeometry x="-310" y="555" width="100" height="30" as="geometry" />
        </mxCell>
        <mxCell id="8G-m37M0JP41XNvaH4UB-32" value="DostÄ™p do &lt;br&gt;bazy danych" style="text;html=1;align=center;verticalAlign=middle;resizable=0;points=[];autosize=1;strokeColor=none;fillColor=none;" vertex="1" parent="1">
          <mxGeometry x="-305" y="630" width="90" height="40" as="geometry" />
        </mxCell>
        <mxCell id="8G-m37M0JP41XNvaH4UB-33" value="" style="group;rotation=-90;" vertex="1" connectable="0" parent="1">
          <mxGeometry x="-210" y="420" width="60" height="30" as="geometry" />
        </mxCell>
        <mxCell id="8G-m37M0JP41XNvaH4UB-34" value="" style="html=1;rounded=0;rotation=-180;" vertex="1" parent="8G-m37M0JP41XNvaH4UB-33">
          <mxGeometry x="15" y="15" width="30" height="30" as="geometry" />
        </mxCell>
        <mxCell id="8G-m37M0JP41XNvaH4UB-35" value="" style="endArrow=none;html=1;rounded=0;align=center;verticalAlign=top;endFill=0;labelBackgroundColor=none;endSize=2;" edge="1" parent="8G-m37M0JP41XNvaH4UB-33" source="8G-m37M0JP41XNvaH4UB-34" target="8G-m37M0JP41XNvaH4UB-36">
          <mxGeometry relative="1" as="geometry" />
        </mxCell>
        <mxCell id="8G-m37M0JP41XNvaH4UB-36" value="" style="ellipse;html=1;fontSize=11;align=center;fillColor=none;points=[];aspect=fixed;resizable=0;verticalAlign=bottom;labelPosition=center;verticalLabelPosition=top;flipH=1;rotation=-90;" vertex="1" parent="8G-m37M0JP41XNvaH4UB-33">
          <mxGeometry x="26" y="-15" width="8" height="8" as="geometry" />
        </mxCell>
        <mxCell id="8G-m37M0JP41XNvaH4UB-37" value="&lt;font style=&quot;font-size: 21px;&quot;&gt;GET: /blog/post&lt;/font&gt;" style="text;html=1;align=center;verticalAlign=middle;resizable=0;points=[];autosize=1;strokeColor=none;fillColor=none;" vertex="1" parent="1">
          <mxGeometry x="-265" y="315" width="170" height="40" as="geometry" />
        </mxCell>
        <mxCell id="8G-m37M0JP41XNvaH4UB-39" value="&lt;font style=&quot;font-size: 28px;&quot;&gt;www.kzc.edu&lt;/font&gt;" style="text;html=1;align=center;verticalAlign=middle;resizable=0;points=[];autosize=1;strokeColor=none;fillColor=none;" vertex="1" parent="1">
          <mxGeometry x="-275" y="260" width="190" height="50" as="geometry" />
        </mxCell>
        <mxCell id="8G-m37M0JP41XNvaH4UB-40" value="&lt;font style=&quot;font-size: 21px;&quot;&gt;POST: /blog/post&lt;/font&gt;" style="text;html=1;align=center;verticalAlign=middle;resizable=0;points=[];autosize=1;strokeColor=none;fillColor=none;" vertex="1" parent="1">
          <mxGeometry x="-270" y="355" width="180" height="40" as="geometry" />
        </mxCell>
      </root>
    </mxGraphModel>
  </diagram>
</mxfile>
